<svg viewBox="-5 30 457 175" width="100%" xmlns="http://www.w3.org/2000/svg">
      <title>Basic W3C Recommendation Track</title>
      <g role="list">
       <g fill="#060" role="listitem">
        <a href="#wd-1">
         <rect fill="white" height="45" role="img" width="57" y="122">
          <title>First Public Working Draft (FPWD) - Exclusion opportunity</title>
         </rect>
         <text font-size="8">
          <tspan aria-hidden="true" x="0" y="132">First Public WD</tspan>
          <tspan x="0" y="152">WG Decision +</tspan>
          <tspan x="0" y="160">Team Approval</tspan>
         </text>
         <path d="M0,140h53" fill="none" stroke="#060"></path>
         <polygon points="47,136 57,140 47,144"></polygon>
        </a>
       </g>
       <g role="listitem">
        <a href="#cr-1">
         <ellipse cx="97" cy="140" fill="#fff" id="wd-1" role="img" rx="38" ry="18" stroke="black">
          <title>Working Draft (WD)</title>
         </ellipse>
         <text aria-hidden="true" font-size="14" font-weight="bold" text-anchor="middle" x="97" y="144">WD</text>
        </a>
        <g role="list">
         <g role="listitem">
          <a href="#wd-1">
           <g role="img">
            <title>Publish a new Working Draft</title>
           </g>
           <text font-size="8" text-anchor="middle">
            <tspan x="97" y="100">WG Decision</tspan>
           </text>
           <path d="M78,124C73,114 79,104 97,104 108,104 115,108 117,114" fill="none" stroke="black" stroke-dasharray="6 2"></path>
           <polygon points="120,114 116,124 114,113"></polygon>
          </a>
         </g>
         <g fill="#060" role="listitem">
          <a href="#cr-1">
           <g role="img">
            <title>Advance to Candidate Recommendation</title>
           </g>
           <text font-size="8" x="135" y="129">WG Decision +</text>
           <text font-size="8" x="135" y="137">Team Approval</text>
           <path d="M135,140h81" stroke="#060"></path>
           <polygon points="211,136 221,140 211,144"></polygon>
          </a>
         </g>
        </g>
       </g>
       <g role="listitem">
        <a href="#rec-1">
         <ellipse cx="260" cy="140" fill="#fff" id="cr-1" role="img" rx="38" ry="18" stroke="black">
          <title>Candidate Recommendation Snapshot (CRS) - Patent Policy exclusion opportunity</title>
         </ellipse>
         <text aria-hidden="true" font-size="14" font-weight="bold" text-anchor="middle" x="260" y="144">CRS</text>
        </a>
        <g role="list">
         <g role="listitem">
          <a href="#crd-1">
           <g role="img">
            <title>Publish revised Candidate Recommendation Draft</title>
           </g>
           <text font-size="8" text-anchor="end">
            <tspan x="232" y="118">WG</tspan>
            <tspan x="232" y="126">Decision</tspan>
           </text>
           <path d="M234,127v-34" stroke="#000"></path>
           <polygon points="234,92 230,102 238,102"></polygon>
          </a>
         </g>
         <g role="listitem">
          <a href="#cr-1">
           <g role="img">
            <title>Publish revised Candidate Recommendation Snapshot</title>
           </g>
           <text font-size="8">
            <tspan x="290" y="99">WG Decision</tspan>
            <tspan x="290" y="107">Team Approval</tspan>
           </text>
           <path d="M242,124C238,114 244,104 260,104 271,104 285,108 286,117" fill="none" stroke="#000" stroke-dasharray="6 2"></path>
          </a>
         </g>
         <g fill="#060" role="listitem">
          <a href="#rec-1">
           <g role="img">
            <title>Advance to Recommendation</title>
           </g>
           <text font-size="8" x="298" y="121">WG Decision +</text>
           <text font-size="8" x="298" y="129">Team Approval +</text>
           <text font-size="8" x="298" y="137">AC Review</text>
           <path d="M298,140h77" stroke="#060"></path>
           <polygon points="374,136 384,140 374,144"></polygon>
          </a>
         </g>
         <g fill="#900" role="listitem">
          <a href="#wd-1">
           <g role="img">
            <title>Return to Working Draft</title>
           </g>
           <text font-size="8" text-anchor="end">
            <tspan x="228" y="157">WG Decision</tspan>
            <tspan font-size="6" x="228" y="165">(or Team Decision with AB+TAG Approval)</tspan>
           </text>
           <path d="M140,147h84" stroke="#900" stroke-dasharray="4 4"></path>
           <polygon points="140,145 133,147 140,149"></polygon>
          </a>
         </g>
        </g>
       </g>
       <g role="listitem">
        <a href="#cr-1">
         <ellipse cx="260" cy="80" fill="#fff" id="crd-1" role="img" rx="38" ry="18" stroke="black">
          <title>Candidate Recommendation Draft (CRD)</title>
         </ellipse>
         <text aria-hidden="true" font-size="14" font-weight="bold" text-anchor="middle" x="260" y="84">CRD</text>
        </a>
        <g role="list">
         <g role="listitem">
          <a href="#crd-1">
           <g role="img">
            <title>Publish revised Candidate Recommendation Draft</title>
           </g>
           <text font-size="8" text-anchor="middle">
            <tspan x="259" y="41">WG Decision</tspan>
           </text>
           <path d="M242,64C238,54 244,44 260,44 271,44 277,48 279,54" fill="none" stroke="#000" stroke-dasharray="6 2"></path>
           <polygon points="282,54 277,64 275,53"></polygon>
          </a>
         </g>
         <g role="listitem">
          <a href="#cr-1">
           <g role="img">
            <title>Publish revised Candidate Recommendation Snapshot</title>
           </g>
           <text font-size="8">
            <tspan x="290" y="99">WG Decision +</tspan>
            <tspan x="290" y="107">Team Approval</tspan>
           </text>
           <path d="M286,127v-34" stroke="#000"></path>
           <polygon points="286,128 282,118 290,118"></polygon>
          </a>
         </g>
        </g>
       </g>
       <g role="listitem">
        <a href="#rec-1">
         <ellipse cx="413" cy="140" fill="#fff" id="rec-1" role="img" rx="28" ry="18" stroke="black" stroke-width="2">
          <title>Recommendation</title>
         </ellipse>
         <text aria-hidden="true" font-size="14" font-weight="bold" text-anchor="middle" x="413" y="144">REC</text>
        </a>
        <g role="list">
         <g fill="#900" role="listitem">
          <a href="#cr-1">
           <g role="img">
            <title>Return to Candidate Recommendation Snapshot</title>
           </g>
           <text font-size="8" text-anchor="start">
            <tspan x="342" y="157">WG Decision</tspan>
            <tspan font-size="6" x="342" y="165">(or Team Decision</tspan>
            <tspan font-size="6" x="342" y="173">with AB+TAG</tspan>
            <tspan font-size="6" x="342" y="181">Approval)</tspan>
           </text>
           <path d="M301,147h88" stroke="#900" stroke-dasharray="4 4"></path>
           <polygon points="301,145 296,147 301,149"></polygon>
          </a>
         </g>
         <g fill="#900" role="listitem">
          <a href="#wd-1">
           <g role="img">
            <title>Return to Working Draft</title>
           </g>
           <text font-size="8" text-anchor="start">
            <tspan x="342" y="157">WG Decision</tspan>
            <tspan font-size="6" x="342" y="165">(or Team Decision</tspan>
            <tspan font-size="6" x="342" y="173">with AB+TAG</tspan>
            <tspan font-size="6" x="342" y="181">Approval)</tspan>
           </text>
           <path d="M339,147v41h-242v-26" fill="none" stroke="#900" stroke-dasharray="4 4"></path>
           <polygon points="95,164 97,159 99,164"></polygon>
          </a>
         </g>
         <g role="listitem">
          <a fill="#000" href="#rec-1">
           <g role="img">
            <title>Publish revised Recommendation with editorial changes</title>
           </g>
           <text font-size="8" text-anchor="middle">
            <tspan x="413" y="103">WG Decision</tspan>
            <tspan font-size="6" x="413" y="116">(editorial)</tspan>
           </text>
           <path d="M395,127C391,117 397,107 413,107 424,107 430,111 432,117" fill="none" stroke="#000" stroke-dasharray="6 2"></path>
           <polygon points="435,117 430,127 428,116"></polygon>
          </a>
         </g>
         <g role="listitem">
          <a fill="#000" href="#rec-1">
           <g role="img">
            <title>Publish revised Recommendation with substantive changes</title>
           </g>
           <text font-size="8" text-anchor="middle">
            <tspan x="413" y="184">WG Decision +</tspan>
            <tspan x="413" y="192">Team Approval +</tspan>
            <tspan x="413" y="200">AC Review</tspan>
            <tspan font-size="6" x="413" y="169">(substantive)</tspan>
           </text>
           <path d="M395,155C391,166 397,176 413,176 424,176 431,173 431,165" fill="none" stroke="#000" stroke-dasharray="6 2"></path>
           <polygon points="435,164 430,155 428,165"></polygon>
          </a>
         </g>
        </g>
       </g>
      </g>
     </svg>