<?xml version="1.0" encoding="UTF-8" standalone="no" ?>
<!DOCTYPE svg PUBLIC "-//W3C//DTD SVG 1.1//EN" "http://www.w3.org/Graphics/SVG/1.1/DTD/svg11.dtd">
<svg xmlns="http://www.w3.org/2000/svg" xmlns:xlink="http://www.w3.org/1999/xlink" version="1.1" width="230" height="230" viewBox="0 0 230 230" xml:space="preserve">
<desc>Created with Fabric.js 5.3.0</desc>
<defs>
</defs>
<g transform="matrix(1 0 0 1 116.6465517241 120)" id="S6kV6gj4EBgmUOFI1itmF"  >
<g style="" vector-effect="non-scaling-stroke"   >
		<g transform="matrix(1 0 0 1 -82.25 -17.75)" id="pU3D7ylfTQW_P2V4i08q0"  >
<path style="stroke: rgb(97,186,251); stroke-width: 6; stroke-dasharray: none; stroke-linecap: round; stroke-dashoffset: 0; stroke-linejoin: miter; stroke-miterlimit: 4; fill: none; fill-rule: nonzero; opacity: 1;" vector-effect="non-scaling-stroke"  transform=" translate(-24, -55.5)" d="M 15 66 L 33 45" stroke-linecap="round" />
</g>
		<g transform="matrix(1 0 0 1 -52.75 -21.75)" id="sxIokk2URU3kRJk5DlfdW"  >
<path style="stroke: rgb(97,186,251); stroke-width: 6; stroke-dasharray: none; stroke-linecap: round; stroke-dashoffset: 0; stroke-linejoin: miter; stroke-miterlimit: 4; fill: none; fill-rule: nonzero; opacity: 1;" vector-effect="non-scaling-stroke"  transform=" translate(-53.5, -51.5)" d="M 63 59 L 44 44" stroke-linecap="round" />
</g>
		<g transform="matrix(1 0 0 1 -16.25 -15.25)" id="4yoGdMLV-i4a77g6WCBDd"  >
<path style="stroke: rgb(97,186,251); stroke-width: 6; stroke-dasharray: none; stroke-linecap: round; stroke-dashoffset: 0; stroke-linejoin: miter; stroke-miterlimit: 4; fill: none; fill-rule: nonzero; opacity: 1;" vector-effect="non-scaling-stroke"  transform=" translate(-90, -58)" d="M 77 61 L 103 55" stroke-linecap="round" />
</g>
		<g transform="matrix(1 0 0 1 16.25 -45.75)" id="BQMveGrii_31Spi13xNJk"  >
<path style="stroke: rgb(97,186,251); stroke-width: 6; stroke-dasharray: none; stroke-linecap: round; stroke-dashoffset: 0; stroke-linejoin: miter; stroke-miterlimit: 4; fill: none; fill-rule: nonzero; opacity: 1;" vector-effect="non-scaling-stroke"  transform=" translate(-122.5, -27.5)" d="M 126 16 L 119 39" stroke-linecap="round" />
</g>
		<g transform="matrix(1 0 0 1 32.75 -29.25)" id="JKD_Gbjin_Q_8LwvHE9Ky"  >
<path style="stroke: rgb(97,186,251); stroke-width: 6; stroke-dasharray: none; stroke-linecap: round; stroke-dashoffset: 0; stroke-linejoin: miter; stroke-miterlimit: 4; fill: none; fill-rule: nonzero; opacity: 1;" vector-effect="non-scaling-stroke"  transform=" translate(-139, -44)" d="M 151 41 L 127 47" stroke-linecap="round" />
</g>
		<g transform="matrix(1 0 0 1 52.25 -5.75)" id="8tMYgW1IjdDlkDlIVJS_I"  >
<path style="stroke: rgb(97,186,251); stroke-width: 6; stroke-dasharray: none; stroke-linecap: round; stroke-dashoffset: 0; stroke-linejoin: miter; stroke-miterlimit: 4; fill: none; fill-rule: nonzero; opacity: 1;" vector-effect="non-scaling-stroke"  transform=" translate(-158.5, -67.5)" d="M 161 50 L 156 85" stroke-linecap="round" />
</g>
		<g transform="matrix(1 0 0 1 71.75 -12.75)" id="vJaEWitXl-r5CvTP2AvsT"  >
<path style="stroke: rgb(97,186,251); stroke-width: 6; stroke-dasharray: none; stroke-linecap: round; stroke-dashoffset: 0; stroke-linejoin: miter; stroke-miterlimit: 4; fill: none; fill-rule: nonzero; opacity: 1;" vector-effect="non-scaling-stroke"  transform=" translate(-178, -60.5)" d="M 163 38 L 193 83" stroke-linecap="round" />
</g>
		<g transform="matrix(1 0 0 1 68.75 18.75)" id="TVbKAyv5MWu0Jwk2qZAlM"  >
<path style="stroke: rgb(97,186,251); stroke-width: 6; stroke-dasharray: none; stroke-linecap: round; stroke-dashoffset: 0; stroke-linejoin: miter; stroke-miterlimit: 4; fill: none; fill-rule: nonzero; opacity: 1;" vector-effect="non-scaling-stroke"  transform=" translate(-175, -92)" d="M 162 92 L 188 92" stroke-linecap="round" />
</g>
		<g transform="matrix(1 0 0 1 27.25 35.25)" id="Q9WH_SgKzudxsq-nr0j5s"  >
<path style="stroke: rgb(97,186,251); stroke-width: 6; stroke-dasharray: none; stroke-linecap: round; stroke-dashoffset: 0; stroke-linejoin: miter; stroke-miterlimit: 4; fill: none; fill-rule: nonzero; opacity: 1;" vector-effect="non-scaling-stroke"  transform=" translate(-133.5, -108.5)" d="M 148 98 L 119 119" stroke-linecap="round" />
</g>
		<g transform="matrix(1 0 0 1 21.75 37.75)" id="Zr6GuSmAX17W_cQjIupgj"  >
<path style="stroke: rgb(97,186,251); stroke-width: 6; stroke-dasharray: none; stroke-linecap: round; stroke-dashoffset: 0; stroke-linejoin: miter; stroke-miterlimit: 4; fill: none; fill-rule: nonzero; opacity: 1;" vector-effect="non-scaling-stroke"  transform=" translate(-128, -111)" d="M 101 90 L 155 132" stroke-linecap="round" />
</g>
		<g transform="matrix(1 0 0 1 62.75 55.75)" id="bpXSpvOs2Xvc76_l3FR7w"  >
<path style="stroke: rgb(97,186,251); stroke-width: 6; stroke-dasharray: none; stroke-linecap: round; stroke-dashoffset: 0; stroke-linejoin: miter; stroke-miterlimit: 4; fill: none; fill-rule: nonzero; opacity: 1;" vector-effect="non-scaling-stroke"  transform=" translate(-169, -129)" d="M 183 126 L 155 132" stroke-linecap="round" />
</g>
		<g transform="matrix(1 0 0 1 89.25 37.75)" id="8_RZ5iCsxFkdbQpb1k6et"  >
<path style="stroke: rgb(97,186,251); stroke-width: 6; stroke-dasharray: none; stroke-linecap: round; stroke-dashoffset: 0; stroke-linejoin: miter; stroke-miterlimit: 4; fill: none; fill-rule: nonzero; opacity: 1;" vector-effect="non-scaling-stroke"  transform=" translate(-195.5, -111)" d="M 194 117 L 197 105" stroke-linecap="round" />
</g>
		<g transform="matrix(1 0 0 1 92.75 63.25)" id="btLX904H3ilYqr19Gssho"  >
<path style="stroke: rgb(97,186,251); stroke-width: 6; stroke-dasharray: none; stroke-linecap: round; stroke-dashoffset: 0; stroke-linejoin: miter; stroke-miterlimit: 4; fill: none; fill-rule: nonzero; opacity: 1;" vector-effect="non-scaling-stroke"  transform=" translate(-199, -136.5)" d="M 195 131 L 203 142" stroke-linecap="round" />
</g>
		<g transform="matrix(1 0 0 1 29.75 0.25)" id="tUewD_LDMuFdZG_0DCotg"  >
<path style="stroke: rgb(97,186,251); stroke-width: 6; stroke-dasharray: none; stroke-linecap: round; stroke-dashoffset: 0; stroke-linejoin: miter; stroke-miterlimit: 4; fill: none; fill-rule: nonzero; opacity: 1;" vector-effect="non-scaling-stroke"  transform=" translate(-136, -73.5)" d="M 123 60 L 149 87" stroke-linecap="round" />
</g>
		<g transform="matrix(1 0 0 1 -45.25 13.75)" id="nOzuQlZxrrEYruCgKTAkM"  >
<path style="stroke: rgb(97,186,251); stroke-width: 6; stroke-dasharray: none; stroke-linecap: round; stroke-dashoffset: 0; stroke-linejoin: miter; stroke-miterlimit: 4; fill: none; fill-rule: nonzero; opacity: 1;" vector-effect="non-scaling-stroke"  transform=" translate(-61, -87)" d="M 67 71 L 55 103" stroke-linecap="round" />
</g>
		<g transform="matrix(1 0 0 1 -49.25 6.75)" id="DoAMY6WN3yIg3LJLfML3p"  >
<path style="stroke: rgb(97,186,251); stroke-width: 6; stroke-dasharray: none; stroke-linecap: round; stroke-dashoffset: 0; stroke-linejoin: miter; stroke-miterlimit: 4; fill: none; fill-rule: nonzero; opacity: 1;" vector-effect="non-scaling-stroke"  transform=" translate(-57, -80)" d="M 27 72 L 87 88" stroke-linecap="round" />
</g>
		<g transform="matrix(1 0 0 1 -18.25 -15.75)" id="0sDq2U8VhkML29L33oghF"  >
<path style="stroke: rgb(97,186,251); stroke-width: 6; stroke-dasharray: none; stroke-linecap: round; stroke-dashoffset: 0; stroke-linejoin: miter; stroke-miterlimit: 4; fill: none; fill-rule: nonzero; opacity: 1;" vector-effect="non-scaling-stroke"  transform=" translate(-88, -57.5)" d="M 79 36 L 97 79" stroke-linecap="round" />
</g>
		<g transform="matrix(1 0 0 1 -2.25 -57.25)" id="2B25JTbpwmsJl-4KScMHf"  >
<path style="stroke: rgb(97,186,251); stroke-width: 6; stroke-dasharray: none; stroke-linecap: round; stroke-dashoffset: 0; stroke-linejoin: miter; stroke-miterlimit: 4; fill: none; fill-rule: nonzero; opacity: 1;" vector-effect="non-scaling-stroke"  transform=" translate(-104, -16)" d="M 120 11 L 88 21" stroke-linecap="round" />
</g>
		<g transform="matrix(1 0 0 1 -67.75 -34.75)" id="UnQIIylHQbszPAth05mAI"  >
<path style="stroke: rgb(97,186,251); stroke-width: 4; stroke-dasharray: none; stroke-linecap: butt; stroke-dashoffset: 0; stroke-linejoin: miter; stroke-miterlimit: 4; fill: none; fill-rule: nonzero; opacity: 1;" vector-effect="non-scaling-stroke"  transform=" translate(-6.5, -6.5)" d="M 0 6.5 C 0 2.91015 2.91015 0 6.5 0 C 10.08985 0 13 2.91015 13 6.5 C 13 10.08985 10.08985 13 6.5 13 C 2.91015 13 0 10.08985 0 6.5 z" stroke-linecap="round" />
</g>
		<g transform="matrix(1 0 0 1 -36.75 -9.75)" id="tBP1tXe4yYtPqqqLrZ4W7"  >
<path style="stroke: rgb(97,186,251); stroke-width: 4; stroke-dasharray: none; stroke-linecap: butt; stroke-dashoffset: 0; stroke-linejoin: miter; stroke-miterlimit: 4; fill: none; fill-rule: nonzero; opacity: 1;" vector-effect="non-scaling-stroke"  transform=" translate(-6.5, -6.5)" d="M 0 6.5 C 0 2.91015 2.91015 0 6.5 0 C 10.08985 0 13 2.91015 13 6.5 C 13 10.08985 10.08985 13 6.5 13 C 2.91015 13 0 10.08985 0 6.5 z" stroke-linecap="round" />
</g>
		<g transform="matrix(1 0 0 1 21.25 -64.75)" id="atFk0fra83nZOqKRHxRNX"  >
<path style="stroke: rgb(97,186,251); stroke-width: 4; stroke-dasharray: none; stroke-linecap: butt; stroke-dashoffset: 0; stroke-linejoin: miter; stroke-miterlimit: 4; fill: none; fill-rule: nonzero; opacity: 1;" vector-effect="non-scaling-stroke"  transform=" translate(-6.5, -6.5)" d="M 0 6.5 C 0 2.91015 2.91015 0 6.5 0 C 10.08985 0 13 2.91015 13 6.5 C 13 10.08985 10.08985 13 6.5 13 C 2.91015 13 0 10.08985 0 6.5 z" stroke-linecap="round" />
</g>
		<g transform="matrix(1 0 0 1 48.25 19.25)" id="3Tta9IcCI_DHDgNDZlhv8"  >
<path style="stroke: rgb(97,186,251); stroke-width: 4; stroke-dasharray: none; stroke-linecap: butt; stroke-dashoffset: 0; stroke-linejoin: miter; stroke-miterlimit: 4; fill: none; fill-rule: nonzero; opacity: 1;" vector-effect="non-scaling-stroke"  transform=" translate(-6.5, -6.5)" d="M 0 6.5 C 0 2.91015 2.91015 0 6.5 0 C 10.08985 0 13 2.91015 13 6.5 C 13 10.08985 10.08985 13 6.5 13 C 2.91015 13 0 10.08985 0 6.5 z" stroke-linecap="round" />
</g>
		<g transform="matrix(1 0 0 1 6.25 51.25)" id="dTFm7dHePWYVrSVnRwjkb"  >
<path style="stroke: rgb(97,186,251); stroke-width: 4; stroke-dasharray: none; stroke-linecap: butt; stroke-dashoffset: 0; stroke-linejoin: miter; stroke-miterlimit: 4; fill: none; fill-rule: nonzero; opacity: 1;" vector-effect="non-scaling-stroke"  transform=" translate(-6.5, -6.5)" d="M 0 6.5 C 0 2.91015 2.91015 0 6.5 0 C 10.08985 0 13 2.91015 13 6.5 C 13 10.08985 10.08985 13 6.5 13 C 2.91015 13 0 10.08985 0 6.5 z" stroke-linecap="round" />
</g>
		<g transform="matrix(1 0 0 1 84.25 51.25)" id="ux62bcdrdAJWDKtXNyU2U"  >
<path style="stroke: rgb(97,186,251); stroke-width: 4; stroke-dasharray: none; stroke-linecap: butt; stroke-dashoffset: 0; stroke-linejoin: miter; stroke-miterlimit: 4; fill: none; fill-rule: nonzero; opacity: 1;" vector-effect="non-scaling-stroke"  transform=" translate(-6.5, -6.5)" d="M 0 6.5 C 0 2.91015 2.91015 0 6.5 0 C 10.08985 0 13 2.91015 13 6.5 C 13 10.08985 10.08985 13 6.5 13 C 2.91015 13 0 10.08985 0 6.5 z" stroke-linecap="round" />
</g>
		<g transform="matrix(1 0 0 1 93.75 19.75)" id="Y94ZmxsW5DEdhuZIyGyGs"  >
<path style="stroke: rgb(97,186,251); stroke-width: 6; stroke-dasharray: none; stroke-linecap: butt; stroke-dashoffset: 0; stroke-linejoin: miter; stroke-miterlimit: 4; fill: none; fill-rule: nonzero; opacity: 1;" vector-effect="non-scaling-stroke"  transform=" translate(-10, -10)" d="M 0 10 C 0 4.47715 4.47715 0 10 0 C 15.52285 0 20 4.47715 20 10 C 20 15.52285 15.52285 20 10 20 C 4.47715 20 0 15.52285 0 10 z" stroke-linecap="round" />
</g>
		<g transform="matrix(1 0 0 1 8.75 -22.25)" id="g7hg6tsxjVivhp5Yi6ecb"  >
<path style="stroke: rgb(97,186,251); stroke-width: 6; stroke-dasharray: none; stroke-linecap: butt; stroke-dashoffset: 0; stroke-linejoin: miter; stroke-miterlimit: 4; fill: none; fill-rule: nonzero; opacity: 1;" vector-effect="non-scaling-stroke"  transform=" translate(-10, -10)" d="M 0 10 C 0 4.47715 4.47715 0 10 0 C 15.52285 0 20 4.47715 20 10 C 20 15.52285 15.52285 20 10 20 C 4.47715 20 0 15.52285 0 10 z" stroke-linecap="round" />
</g>
		<g transform="matrix(1 0 0 1 -91.25 -5.25)" id="ZvqCo0dVnhQgNUBkOqB2E"  >
<path style="stroke: none; stroke-width: 1; stroke-dasharray: none; stroke-linecap: butt; stroke-dashoffset: 0; stroke-linejoin: miter; stroke-miterlimit: 4; fill: rgb(71,119,192); fill-rule: nonzero; opacity: 1;" vector-effect="non-scaling-stroke"  transform=" translate(-15, -15)" d="M 0 15 C 0 6.715730000000001 6.71573 0 15 0 C 23.28427 0 30 6.71573 30 15 C 30 23.28427 23.28427 30 15 30 C 6.715730000000001 30 0 23.28427 0 15 z" stroke-linecap="round" />
</g>
		<g transform="matrix(1 0 0 1 -31.25 -48.25)" id="sII8m9xKC6gfQUXYOnB2v"  >
<path style="stroke: none; stroke-width: 1; stroke-dasharray: none; stroke-linecap: butt; stroke-dashoffset: 0; stroke-linejoin: miter; stroke-miterlimit: 4; fill: rgb(71,119,192); fill-rule: nonzero; opacity: 1;" vector-effect="non-scaling-stroke"  transform=" translate(-15, -15)" d="M 0 15 C 0 6.715730000000001 6.71573 0 15 0 C 23.28427 0 30 6.71573 30 15 C 30 23.28427 23.28427 30 15 30 C 6.715730000000001 30 0 23.28427 0 15 z" stroke-linecap="round" />
</g>
		<g transform="matrix(1 0 0 1 56.75 -35.25)" id="nmfeczx_4quElXn1uUxc4"  >
<path style="stroke: none; stroke-width: 1; stroke-dasharray: none; stroke-linecap: butt; stroke-dashoffset: 0; stroke-linejoin: miter; stroke-miterlimit: 4; fill: rgb(71,119,192); fill-rule: nonzero; opacity: 1;" vector-effect="non-scaling-stroke"  transform=" translate(-15, -15)" d="M 0 15 C 0 6.715730000000001 6.71573 0 15 0 C 23.28427 0 30 6.71573 30 15 C 30 23.28427 23.28427 30 15 30 C 6.715730000000001 30 0 23.28427 0 15 z" stroke-linecap="round" />
</g>
		<g transform="matrix(1 0 0 1 -5.25 16.75)" id="gne67aYAl1Um2XEJwLaKV"  >
<path style="stroke: none; stroke-width: 1; stroke-dasharray: none; stroke-linecap: butt; stroke-dashoffset: 0; stroke-linejoin: miter; stroke-miterlimit: 4; fill: rgb(71,119,192); fill-rule: nonzero; opacity: 1;" vector-effect="non-scaling-stroke"  transform=" translate(-15, -15)" d="M 0 15 C 0 6.715730000000001 6.71573 0 15 0 C 23.28427 0 30 6.71573 30 15 C 30 23.28427 23.28427 30 15 30 C 6.715730000000001 30 0 23.28427 0 15 z" stroke-linecap="round" />
</g>
		<g transform="matrix(1 0 0 1 49.75 57.75)" id="4pj6VsnGKMJiU_s-p9F0b"  >
<path style="stroke: none; stroke-width: 1; stroke-dasharray: none; stroke-linecap: butt; stroke-dashoffset: 0; stroke-linejoin: miter; stroke-miterlimit: 4; fill: rgb(71,119,192); fill-rule: nonzero; opacity: 1;" vector-effect="non-scaling-stroke"  transform=" translate(-15, -15)" d="M 0 15 C 0 6.715730000000001 6.71573 0 15 0 C 23.28427 0 30 6.71573 30 15 C 30 23.28427 23.28427 30 15 30 C 6.715730000000001 30 0 23.28427 0 15 z" stroke-linecap="round" />
</g>
</g>
</g>
</svg>