<?xml version="1.0" encoding="UTF-8" standalone="no"?>
<svg
   xmlns:dc="http://purl.org/dc/elements/1.1/"
   xmlns:cc="http://creativecommons.org/ns#"
   xmlns:rdf="http://www.w3.org/1999/02/22-rdf-syntax-ns#"
   xmlns:svg="http://www.w3.org/2000/svg"
   xmlns="http://www.w3.org/2000/svg"
   xmlns:sodipodi="http://sodipodi.sourceforge.net/DTD/sodipodi-0.dtd"
   xmlns:inkscape="http://www.inkscape.org/namespaces/inkscape"
   width="72"
   height="48"
   viewBox="0 0 72 48"
   version="1.1"
   id="svg12"
   sodipodi:docname="w3c_icon_rounded4.svg"
   inkscape:version="1.0.2 (e86c870879, 2021-01-15)">
  <metadata
     id="metadata18">
    <rdf:RDF>
      <cc:Work
         rdf:about="">
        <dc:format>image/svg+xml</dc:format>
        <dc:type
           rdf:resource="http://purl.org/dc/dcmitype/StillImage" />
        <dc:title></dc:title>
      </cc:Work>
    </rdf:RDF>
  </metadata>
  <defs
     id="defs16" />
  <sodipodi:namedview
     pagecolor="#ffffff"
     bordercolor="#666666"
     borderopacity="1"
     objecttolerance="10"
     gridtolerance="10"
     guidetolerance="10"
     inkscape:pageopacity="0"
     inkscape:pageshadow="2"
     inkscape:window-width="1914"
     inkscape:window-height="1085"
     id="namedview14"
     showgrid="false"
     inkscape:zoom="15.17"
     inkscape:cx="36"
     inkscape:cy="27.401792"
     inkscape:window-x="0"
     inkscape:window-y="0"
     inkscape:window-maximized="0"
     inkscape:current-layer="svg12" />
  <rect
     fill="#ffffff"
     x="0"
     y="0"
     width="72"
     height="48"
     id="rect2" />
  <path
     id="path1599"
     style="fill:#005a9c"
     d="M 4.0644531 8.8144531 L 13.595703 40.984375 L 13.992188 40.984375 L 19.949219 21.048828 L 25.908203 40.984375 L 26.304688 40.984375 L 33.447266 16.878906 C 34.811402 12.275304 34.134574 12.785156 38.205078 12.785156 L 41.5625 12.785156 L 34.925781 24.304688 L 37.589844 24.304688 C 39.311451 24.304688 41.124125 24.925922 42.078125 26.169922 C 42.211773 26.342524 42.331872 26.5304 42.443359 26.726562 C 42.469189 26.771753 42.492908 26.818802 42.517578 26.865234 C 42.622497 27.063831 42.720484 27.269427 42.804688 27.490234 C 43.139387 28.368428 43.308594 29.423499 43.308594 30.658203 C 43.308594 32.406203 42.92425 33.901484 42.15625 35.146484 C 41.947767 35.484183 41.726019 35.771552 41.492188 36.017578 C 41.342624 36.174939 41.187083 36.311461 41.027344 36.431641 C 41.013914 36.441691 40.999838 36.451147 40.986328 36.460938 C 40.823458 36.579648 40.657849 36.681474 40.484375 36.761719 C 40.326263 36.834859 40.161161 36.886719 39.994141 36.927734 C 39.951481 36.938124 39.908461 36.946778 39.865234 36.955078 C 39.693431 36.988358 39.518991 37.011719 39.337891 37.011719 C 39.329809 37.011719 39.322519 37.009806 39.314453 37.009766 C 39.306353 37.009725 39.299066 37.007914 39.291016 37.007812 C 39.28696 37.007773 39.2832 37.006339 39.279297 37.005859 C 39.269924 37.005741 39.261304 37.00408 39.251953 37.003906 C 39.013769 36.999606 38.780662 36.981506 38.556641 36.941406 C 38.555387 36.94118 38.553988 36.941633 38.552734 36.941406 C 38.491444 36.930376 38.435229 36.906298 38.375 36.892578 C 38.362463 36.889745 38.350073 36.886635 38.337891 36.882812 C 38.322606 36.879158 38.308184 36.87297 38.292969 36.869141 C 38.140131 36.833681 37.986658 36.799491 37.841797 36.744141 C 37.613505 36.656911 37.394698 36.548538 37.183594 36.417969 C 36.97249 36.287399 36.769935 36.135101 36.576172 35.960938 C 36.16193 35.510856 35.849992 34.999231 35.519531 34.5 L 31.464844 34.5 C 31.739732 35.316985 32.081246 36.055996 32.474609 36.734375 L 32.462891 36.755859 C 32.505429 36.832697 32.562379 36.904637 32.609375 36.980469 C 32.889406 37.435345 33.190977 37.866731 33.527344 38.255859 C 33.826915 38.602421 34.147937 38.922297 34.492188 39.216797 C 34.663454 39.363419 34.83888 39.500517 35.017578 39.628906 C 35.017578 39.628906 35.019531 39.630859 35.019531 39.630859 C 35.19752 39.758642 35.379101 39.876633 35.564453 39.986328 C 35.679499 40.054415 35.798136 40.112712 35.916016 40.173828 C 35.931785 40.182004 35.947071 40.191168 35.962891 40.199219 C 36.019902 40.230555 36.076386 40.263269 36.134766 40.291016 C 36.136595 40.291884 36.138795 40.292102 36.140625 40.292969 C 36.332521 40.383959 36.527276 40.466099 36.726562 40.539062 C 36.729262 40.540062 36.731675 40.541969 36.734375 40.542969 C 36.734375 40.542969 36.736328 40.542969 36.736328 40.542969 C 36.934118 40.615139 37.134892 40.677916 37.339844 40.732422 C 37.343844 40.733522 37.347544 40.735328 37.351562 40.736328 C 37.351562 40.736328 37.353516 40.736328 37.353516 40.736328 C 37.557486 40.790148 37.765519 40.834748 37.976562 40.871094 C 37.981662 40.871976 37.987057 40.872147 37.992188 40.873047 C 38.180653 40.904917 38.372294 40.927212 38.566406 40.945312 C 38.571027 40.945744 38.575455 40.946842 38.580078 40.947266 C 38.587202 40.948695 38.594248 40.950498 38.601562 40.951172 C 38.612493 40.953072 38.623536 40.954078 38.634766 40.955078 C 38.634766 40.955078 38.636719 40.955078 38.636719 40.955078 C 38.642019 40.955524 38.647024 40.956531 38.652344 40.957031 C 38.652344 40.957031 38.654297 40.957031 38.654297 40.957031 C 38.771233 40.966631 38.892371 40.966133 39.011719 40.970703 C 39.036507 40.971658 39.061062 40.973872 39.085938 40.974609 C 39.101536 40.975453 39.117073 40.976177 39.132812 40.976562 C 39.193072 40.980162 39.253084 40.984275 39.314453 40.984375 C 39.322377 40.984397 39.329958 40.984375 39.337891 40.984375 C 39.516135 40.984375 39.685911 40.967431 39.859375 40.957031 L 39.859375 40.947266 C 40.045981 40.933856 40.237638 40.931763 40.419922 40.908203 C 40.445512 40.904703 40.470614 40.900304 40.496094 40.896484 C 40.838351 40.848794 41.169894 40.776672 41.492188 40.685547 C 42.994678 40.26073 44.285337 39.37539 45.353516 38.005859 C 46.902516 36.019859 47.677734 33.571203 47.677734 30.658203 C 47.677734 28.302203 47.146891 26.250906 46.087891 24.503906 C 45.283646 23.177168 44.18901 22.164501 42.804688 21.462891 C 42.761798 21.441141 42.715278 21.423504 42.671875 21.402344 C 42.493047 21.315344 42.313269 21.229174 42.125 21.152344 C 41.891513 21.056594 41.651146 20.968553 41.402344 20.888672 C 43.727107 16.86315 46.092635 12.860915 48.380859 8.8144531 L 35.837891 8.8144531 C 32.213592 8.8144531 31.485082 9.432098 30.226562 13.710938 L 25.908203 28.394531 L 20.148438 8.8144531 L 15.980469 8.8144531 L 16.933594 12.013672 C 17.727598 14.677978 17.65709 15.985892 16.912109 18.507812 L 13.992188 28.394531 L 8.234375 8.8144531 L 4.0644531 8.8144531 z " />
  <path
     d="M 68.952 8.815 C 68.133 8.815 67.398 9.11 66.841 9.676 C 66.25 10.276 65.921 11.052 65.921 11.854 C 65.921 12.656 66.234 13.399 66.808 13.982 C 67.391 14.573 68.142 14.894 68.953 14.894 C 69.746 14.894 70.515 14.573 71.114 13.991 C 71.688 13.434 72 12.69 72 11.854 C 72 11.043 71.679 10.284 71.122 9.718 C 70.539 9.127 69.779 8.815 68.952 8.815 Z M 71.595 11.88 C 71.595 12.581 71.324 13.231 70.826 13.712 C 70.303 14.219 69.653 14.489 68.935 14.489 C 68.26 14.489 67.593 14.211 67.095 13.704 C 66.597 13.198 66.318 12.547 66.318 11.855 C 66.318 11.163 66.605 10.487 67.12 9.964 C 67.601 9.474 68.251 9.213 68.96 9.213 C 69.686 9.213 70.336 9.484 70.843 9.998 C 71.333 10.487 71.595 11.146 71.595 11.88 Z M 69.037 10.073 L 67.737 10.073 L 67.737 13.518 L 68.387 13.518 L 68.387 12.049 L 69.029 12.049 L 69.73 13.518 L 70.456 13.518 L 69.687 11.947 C 70.185 11.846 70.472 11.508 70.472 11.019 C 70.472 10.394 69.999 10.073 69.037 10.073 Z M 68.918 10.495 C 69.526 10.495 69.804 10.664 69.804 11.086 C 69.804 11.491 69.526 11.635 68.934 11.635 L 68.385 11.635 L 68.385 10.495 Z"
     id="path6" />
  <path
     d="M 63.839 8.634 L 64.177 10.6875 C 64.492497 12.604283 64.1716 13.398153 63.3195 15.0285 L 62.124 17.316 C 62.124 17.316 61.206 15.375 59.681 14.301 C 58.396 13.396 57.559 13.199 56.25 13.469 C 54.569 13.816 52.663 15.826 51.831 18.304 C 50.836 21.269 50.826 22.704 50.791 24.022 C 50.735 26.135 51.068 27.384 51.068 27.384 C 51.068 27.384 49.617 24.698 49.63 20.764 C 49.639 17.956 50.081 15.41 51.38 12.897 C 52.523 10.688 54.222 9.362 55.73 9.206 C 57.289 9.045 58.521 9.796 59.473 10.61 C 60.472 11.464 61.483 13.33 61.483 13.33 Z"
     id="path8" />
  <path
     d="M 64.134 31.872 C 64.134 31.872 63.077 33.761 62.419 34.489 C 61.76 35.217 60.582 36.499 59.127 37.14 C 57.671 37.781 56.909 37.902 55.471 37.764 C 54.034 37.626 52.698 36.794 52.23 36.447 C 51.762 36.1 50.566 35.078 49.891 34.125 C 49.215 33.171 48.158 31.266 48.158 31.266 C 48.158 31.266 48.747 33.177 49.116 33.987 C 49.328 34.453 49.98 35.881 50.906 37.123 C 51.768 38.282 53.445 40.277 55.992 40.727 C 58.539 41.178 60.289 40.034 60.722 39.756 C 61.155 39.479 62.154309 38.82558 62.732243 38.207518 C 63.335309 37.56258 63.655326 37.100125 64.057354 36.286743 C 64.349411 35.695854 64.602117 34.309439 64.4385 33.4575 Z"
     id="path10" />
</svg>
