<?xml version="1.0" encoding="UTF-8" standalone="no" ?>
<!DOCTYPE svg PUBLIC "-//W3C//DTD SVG 1.1//EN" "http://www.w3.org/Graphics/SVG/1.1/DTD/svg11.dtd">
<svg xmlns="http://www.w3.org/2000/svg" xmlns:xlink="http://www.w3.org/1999/xlink" version="1.1" width="230" height="230" viewBox="0 0 230 230" xml:space="preserve">
<desc>Created with Fabric.js 5.3.0</desc>
<defs>
</defs>
<g transform="matrix(0.65147 0 0 0.65147 74.2977735608 130.4032012756)" id="8Yp2RluF8ZmSX3zuqKDTg"  >
<linearGradient id="SVGID_18" gradientUnits="userSpaceOnUse" gradientTransform="matrix(-70.1493851963 387.1593386589 -387.1593386589 -70.1493851963 337.4686237265 273.4795479094)"  x1="0" y1="0" x2="1" y2="0">
<stop offset="0%" style="stop-color:rgb(255,0,0);stop-opacity: 1"/>
<stop offset="100%" style="stop-color:rgb(153,0,0);stop-opacity: 1"/>
</linearGradient>
<path style="stroke: none; stroke-width: 1; stroke-dasharray: none; stroke-linecap: butt; stroke-dashoffset: 0; stroke-linejoin: round; stroke-miterlimit: 2; fill: url(#SVGID_18); fill-rule: evenodd; opacity: 1;" vector-effect="non-scaling-stroke"  transform=" translate(-267.2851759265, -470.648228277)" d="M 259.879 588.352 C 255.02200000000002 576.771 198.81100000000004 441.663 198.81100000000004 441.663 C 198.81100000000004 441.663 185.68700000000004 410.493 232.85300000000004 388.346 C 280.01800000000003 366.199 337.437 338.31 337.437 338.31 L 337.437 550.037 C 337.437 550.037 303.447 583.741 290.00300000000004 597.2520000000001 C 277.78700000000003 609.5310000000001 264.75500000000005 599.9810000000001 259.879 588.3520000000001 z" stroke-linecap="round" />
</g>
<g transform="matrix(-0.65147 0 0 0.65147 165.7022264392 130.4032012756)" id="cGvtZzs5pjKgedY-5EPpt"  >
<linearGradient id="SVGID_19" gradientUnits="userSpaceOnUse" gradientTransform="matrix(163.5349523391 -313.319460397 313.319460397 163.5349523391 277.8939158686 602.7136184374)"  x1="0" y1="0" x2="1" y2="0">
<stop offset="0%" style="stop-color:rgb(255,0,0);stop-opacity: 1"/>
<stop offset="100%" style="stop-color:rgb(153,0,0);stop-opacity: 1"/>
</linearGradient>
<path style="stroke: none; stroke-width: 1; stroke-dasharray: none; stroke-linecap: butt; stroke-dashoffset: 0; stroke-linejoin: round; stroke-miterlimit: 2; fill: url(#SVGID_19); fill-rule: evenodd; opacity: 1;" vector-effect="non-scaling-stroke"  transform=" translate(-267.2851759265, -470.648228277)" d="M 259.879 588.352 C 255.02200000000002 576.771 198.81100000000004 441.663 198.81100000000004 441.663 C 198.81100000000004 441.663 185.68700000000004 410.493 232.85300000000004 388.346 C 280.01800000000003 366.199 337.437 338.31 337.437 338.31 L 337.437 550.037 C 337.437 550.037 303.447 583.741 290.00300000000004 597.2520000000001 C 277.78700000000003 609.5310000000001 264.75500000000005 599.9810000000001 259.879 588.3520000000001 z" stroke-linecap="round" />
</g>
<g transform="matrix(-0.65147 0 0 0.65147 82.9061733227 43.8979689891)" id="v4mJv4mhfigstS8oocskB"  >
<linearGradient id="SVGID_20" gradientUnits="userSpaceOnUse" gradientTransform="matrix(-196.3823745455 337.594868813 337.594868813 196.3823745455 451.3585015765 269.1925877929)"  x1="0" y1="0" x2="1" y2="0">
<stop offset="0%" style="stop-color:rgb(153,0,0);stop-opacity: 0.65"/>
<stop offset="100%" style="stop-color:rgb(254,0,0);stop-opacity: 0.65"/>
</linearGradient>
<path style="stroke: none; stroke-width: 1; stroke-dasharray: none; stroke-linecap: butt; stroke-dashoffset: 0; stroke-linejoin: round; stroke-miterlimit: 2; fill: url(#SVGID_20); fill-rule: evenodd; opacity: 1;" vector-effect="non-scaling-stroke"  transform=" translate(-394.3762977226, -337.8635531783)" d="M 337.437 338.31 L 434.915 291.022 C 434.915 291.022 455.682 281.87 450.47900000000004 311.138 L 437.16 386.06 L 337.437 338.31 z" stroke-linecap="round" />
</g>
<g transform="matrix(0.65147 0 0 0.65147 157.0938266773 43.8979689891)" id="S0j0EaG2iCGgVu0VbsOBn"  >
<linearGradient id="SVGID_21" gradientUnits="userSpaceOnUse" gradientTransform="matrix(-70.1493851963 387.1593386589 -387.1593386589 -70.1493851963 337.4686237265 273.4795479094)"  x1="0" y1="0" x2="1" y2="0">
<stop offset="0%" style="stop-color:rgb(255,0,0);stop-opacity: 0.65"/>
<stop offset="100%" style="stop-color:rgb(153,0,0);stop-opacity: 0.65"/>
</linearGradient>
<path style="stroke: none; stroke-width: 1; stroke-dasharray: none; stroke-linecap: butt; stroke-dashoffset: 0; stroke-linejoin: round; stroke-miterlimit: 2; fill: url(#SVGID_21); fill-rule: evenodd; opacity: 1;" vector-effect="non-scaling-stroke"  transform=" translate(-394.3762977226, -337.8635531783)" d="M 337.437 338.31 L 434.915 291.022 C 434.915 291.022 455.682 281.87 450.47900000000004 311.138 L 437.16 386.06 L 337.437 338.31 z" stroke-linecap="round" />
</g>
</svg>